<svg width="288" height="288" xmlns="http://www.w3.org/2000/svg" version="1.1" xmlns:xlink="http://www.w3.org/1999/xlink" xmlns:svgjs="http://svgjs.com/svgjs"><defs id="SvgjsDefs1013"></defs><g id="SvgjsG1014"><svg xmlns="http://www.w3.org/2000/svg" viewBox="0 0 512 512" width="288" height="288"><path d="M195.8 302.5h-69.5v-15.1l30.8-33.8c4.1-4.7 7.1-8.8 9.1-12.5 1.9-3.7 2.9-6.8 2.9-9.5 0-3.9-.9-7-2.6-9.2-1.7-2.3-4.5-3.4-8.4-3.4-3.6 0-6.4 1.5-8.4 4.4-2 3-3 6.7-3 11.3H124l-.1-.4c-.2-9.2 2.8-17.1 9.1-23.5 6.3-6.4 14.7-9.6 25.1-9.6 10.9 0 19.4 2.7 25.3 8.1 5.9 5.4 8.9 12.8 8.9 22.2 0 6.3-1.6 11.9-4.9 16.8-3.3 4.9-9.3 12.1-18.1 21.6l-12.2 14.6.1.3h38.6v17.7zm72.7-39.1h10.1v18h-10.1v21.1h-23.2v-21.1h-39.8l-1.4-14.3 41.1-64.4v-.2h23.2v60.9zm-44.4 0h21.2v-31.1l-.4-.1-2.5 5.1-18.3 26.1zm79.6 47.7h-23.4l34.1-108.6h23.4l-34.1 108.6zm110.6-90.7c-10.6 12.1-17.9 23.2-21.8 33.4-3.9 10.2-5.9 22.1-5.9 35.6v13.1h-23.2v-13.1c0-13.4 2.4-25.6 7.3-36.8 4.9-11.1 12-21.9 21.4-32.2H342v-17.9h72.3v17.9z" fill="#0b15f5" class="svgShape color000000-0 selectable"></path><path d="M20.9 212.5C.4 325.8 62.1 443.7 177.8 486.1c113.1 41.4 242.5-8.2 299.2-114.4 66.4-124.3 14.4-277.8-111.5-337C264.2-13 146.5 15.1 76.6 95.8c-6.7 7.7-4.2 19.7 5.1 24.1l9.7 4.5c8 3.8 17.7 2.3 23.7-4.2 62.2-67 166-86 250.5-34.8 79 47.9 115.1 146.8 85.3 234.3-39 114.7-167.9 167.2-274.5 117.1-79.9-37.4-123-121.2-113.2-204.3l11.5 5.5c4.8 2.3 10.2-1.5 9.8-6.7l-5.8-71.5c-.4-5.3-6.4-8.1-10.7-5.1L9 195.4c-4.3 3-3.8 9.6 1 11.8l10.9 5.3z" fill="#0129ff" class="svgShape color000000-1 selectable"></path></svg></g></svg>
