<svg id="SvgjsSvg1018" width="288" height="288" xmlns="http://www.w3.org/2000/svg" version="1.1" xmlns:xlink="http://www.w3.org/1999/xlink" xmlns:svgjs="http://svgjs.com/svgjs"><defs id="SvgjsDefs1019"></defs><g ><svg xmlns="http://www.w3.org/2000/svg" viewBox="0 0 184.976 237.818" width="288" height="288"><path d="M8.21 145.731c-3.549 4.698-2.893 15.276-2.288 20.566a4.712 4.712 0 0 0-1.458 1.004C.395 171.399-.081 184.121.011 197.26c.005.725.01 1.361.01 1.893h3c0-.537-.004-1.182-.01-1.914-.046-6.576-.168-24.047 3.582-27.823.457-.46.82-.513 1.053-.513s.597.053 1.053.513c3.75 3.776 3.627 21.247 3.582 27.823-.005.732-.01 1.377-.01 1.914h3c0-.531.004-1.168.01-1.893.092-13.139-.384-25.861-4.453-29.959a4.591 4.591 0 0 0-1.898-1.151c-.993-8.448-.427-15.453 1.464-18.349a7.955 7.955 0 0 0 4.242 1.268h.067c.38 0 .751-.035 1.117-.086.91 1.555 1.725 3.772 2.447 6.494.175-2.25.373-4.543.591-6.87a18.066 18.066 0 0 0-.285-.539c.122-.068.239-.142.357-.215 3.168-33.178 10.238-72.118 10.238-72.118h2.395c-1.893 11.852-10.291 66.127-10.291 96 8.666 4 23.334 8 38.154 8s29.486-4 38.154-8c0-25.614-6.304-74.214-9.32-96a1575.32 1575.32 0 0 0-1.19-8.433l16.4 1.18c.141-.388.281-.777.426-1.154 2.697-7.018 5.9-11.433 8.903-14.217l-33.527-2.412a8.044 8.044 0 0 0-1.018-.002h-6.15c-.099 6.951-3.696 16.634-7.037 24.164l-1.615-11.9c-1.295.486-2.658.74-4.021.74h-.008a11.47 11.47 0 0 1-4.027-.739l-1.614 11.897c-3.341-7.529-6.937-17.211-7.036-24.162h-6.638c-.573 0-1.129.067-1.667.185-1.477.233-3.625.811-6.093 2.204-5.507 3.072-11.937 9.822-16.809 23.115-4.906 13.342-8.571 33.439-8.839 64.801a7.96 7.96 0 0 0 1.51 4.729zm79.107-3.038.547 3.961-17.832 2.457-.547-3.963 17.832-2.455zm-37.954 2.456-.547 3.963-17.832-2.457.547-3.961 17.832 2.455z" fill="#ffffff" class="svgShape color000000-0 selectable"></path><path d="M17.104 203.07a6.5 6.5 0 1 0 13 0 6.497 6.497 0 0 0-4.813-6.273c-.042-5.567-.229-12.818-.795-20.175a98.028 98.028 0 0 1-3.153-1.046c.565 6.617.882 13.848.945 21.125a6.504 6.504 0 0 0-5.184 6.369zm40.004-21.036c-8.71-.198-17.275-1.482-24.729-3.248v46.033c0 6.83 5.537 12.364 12.363 12.364 6.828 0 12.365-5.534 12.365-12.364v-42.785zm16.998 55.149c6.828 0 12.365-5.534 12.365-12.364v-46.033c-7.454 1.766-16.018 3.05-24.729 3.249v42.785c0 6.828 5.537 12.363 12.364 12.363zm-18.483-186.4-1.9 7.5.292.46a8.438 8.438 0 0 0 5.408 1.958 8.433 8.433 0 0 0 5.412-1.962l.289-.456-1.9-7.5h-7.601zM69.361 2.312A22.403 22.403 0 0 0 59.424 0a22.428 22.428 0 0 0-16.048 6.735h22.737a8.18 8.18 0 0 1 3.248-4.423zM59.424 45c12.428 0 22.5-10.073 22.5-22.5a22.44 22.44 0 0 0-1.604-8.344 8.146 8.146 0 0 1-6.382 3.08c-3.7 0-6.821-2.46-7.825-5.833h-26.26a22.39 22.39 0 0 0-2.93 11.097C36.924 34.927 46.998 45 59.424 45zM75.76 26.892s-6.287 19.564-21.908 5.93c0 0 14.093.7 21.908-5.93zm100.278 126.529a8 8 0 0 0 8.376-7.606c1.714-35.538-.501-61.583-6.583-77.412-4.001-10.411-8.976-14.467-12.407-16.041a7.685 7.685 0 0 0-3.843-1.029h-3.015c-4.363 3.815-10.065 6.135-16.302 6.135s-11.939-2.32-16.302-6.135h-3.015a7.688 7.688 0 0 0-3.835 1.024c-3.431 1.571-8.412 5.625-12.416 16.046-6.082 15.829-8.296 41.874-6.582 77.412a8 8 0 0 0 15.981-.77c-1.579-32.726.532-51.982 3.203-63.198h2.353c-2.634 10.744-4.864 29.805-3.259 63.087a10.233 10.233 0 0 1-2.663 7.42c-.163.18-.338.344-.511.511v72.589c0 6.83 5.537 12.363 12.363 12.363 6.828 0 12.365-5.533 12.365-12.363v-90.271h4.635v90.271c0 6.83 5.537 12.363 12.363 12.363 6.828 0 12.365-5.533 12.365-12.363V152.86c-2.078-1.992-3.323-4.831-3.174-7.925 1.605-33.283-.625-52.344-3.26-63.087h2.354c2.671 11.216 4.782 30.473 3.204 63.198a8 8 0 0 0 7.605 8.375z" fill="#ffffff" class="svgShape color000000-1 selectable"></path><path d="M142.263 55.168c12.428 0 22.5-10.073 22.5-22.5s-10.072-22.5-22.5-22.5c-12.426 0-22.5 10.073-22.5 22.5s10.074 22.5 22.5 22.5zm6.64-17.643s-8.346 18.778-22.417 3.549c-.001.001 13.936 2.206 22.417-3.549z" fill="#ffffff" class="svgShape color000000-2 selectable"></path></svg></g></svg>
