<svg id="SvgjsSvg1016" width="288" height="288" xmlns="http://www.w3.org/2000/svg" version="1.1" xmlns:xlink="http://www.w3.org/1999/xlink" xmlns:svgjs="http://svgjs.com/svgjs"><defs id="SvgjsDefs1017"></defs><g id="SvgjsG1018"><svg xmlns="http://www.w3.org/2000/svg" viewBox="0 0 100 100" width="288" height="288"><path d="M81.656 25.99c-1.817-1.855-4.232-2.875-6.804-2.875h-.002c-2.572 0-4.986 1.022-6.901 2.989l-.302.371-.397-.484c-1.815-1.855-4.231-2.874-6.802-2.874s-4.987 1.019-6.803 2.874c-3.722 3.803-3.722 9.991 0 13.792L66.45 52.86a1.683 1.683 0 0 0 2.403 0l12.804-13.077c3.721-3.802 3.721-9.99-.001-13.793zM67.65 49.282l-11.603-11.85c-2.454-2.506-2.454-6.584 0-9.092a6.12 6.12 0 0 1 4.4-1.863c1.661 0 3.223.662 4.298 1.749l1.602 1.965c.64.784 1.966.784 2.606 0l1.5-1.851a6.114 6.114 0 0 1 4.397-1.865h.002c1.661 0 3.225.663 4.402 1.865 2.454 2.508 2.454 6.586 0 9.092L67.65 49.282zm5.042-11.042a1.68 1.68 0 0 1-1.68 1.681h-1.681v1.68a1.68 1.68 0 1 1-3.361 0v-1.68h-1.681a1.68 1.68 0 0 1-1.68-1.681 1.68 1.68 0 0 1 1.68-1.681h1.681v-1.68a1.68 1.68 0 1 1 3.361 0v1.68h1.681c.928 0 1.68.752 1.68 1.681zM57.611 59.148a6.855 6.855 0 0 0-1.867-.982 17.655 17.655 0 0 0-9.815-8.776c1.095-1.352 1.554-3.059 1.554-4.428 0-.18-.03-.361-.087-.532l-1.064-3.188a11.741 11.741 0 0 0-6.426-7.046c2.55-2.289 4.216-6.025 4.216-10.24 0-1.814-.308-3.578-.916-5.242-1.493-4.096-4.639-6.857-8.183-7.294-.049-.036-.097-.072-.151-.103a12.452 12.452 0 0 0-10.919-.725c-3.451 1.4-6.016 4.224-7.034 7.749-.882 3.056-1.367 6.763-1.367 10.441 0 5.672 1.9 10.306 5.042 13.085V66.682L17.253 88.4a1.68 1.68 0 1 0 3.322.512l.04-.256 3.322-21.591c.013-.085.02-.171.02-.256v-6.525c.709.531 1.51.958 2.385 1.249l20.611 6.87a1.688 1.688 0 0 0 1.341-.12 1.68 1.68 0 0 0 .354-.271c1.181.935 2.742 1.503 4.447 1.503.125 0 .253-.002.379-.008.113-.006.223-.021.334-.031-.54 2.4-1.621 4.599-3.198 6.384-.039.045-.066.096-.1.144-.014.014-.031.025-.045.04a12.847 12.847 0 0 1-3.589 2.759 1.681 1.681 0 0 0 1.543 2.987 16.072 16.072 0 0 0 2.396-1.523l1.678 8.39.066.33a1.68 1.68 0 0 0 3.296-.661l-2.18-10.893c2.088-2.621 3.389-5.849 3.772-9.313 1.573-1.153 2.547-2.902 2.453-4.818-.082-1.626-.894-3.102-2.289-4.154zm-7.73 4.996.434-1.738c.573-.718 1.59-1.234 2.744-1.29.071-.003.141-.005.212-.005.029 0 .057.006.085.007a3.963 3.963 0 0 1 1.932.531c.102.06.207.116.3.185.585.442.922 1.021.952 1.635.029.589-.231 1.152-.681 1.61-.415.421-.992.751-1.656.93a4.276 4.276 0 0 1-.896.142c-1.683.063-3.136-.815-3.426-2.007zm-2.691-3.089-.721 2.882-.176.704-18.89-6.296a5.038 5.038 0 0 1-3.448-4.784V39.079a2.524 2.524 0 0 1 2.521-2.521c.126 0 .247.019.368.037a2.509 2.509 0 0 1 2.128 2.237c.008.083.025.162.025.247v12.893c0 .666.394 1.27 1.004 1.539l17.186 7.542.003.002zM20.15 19.273c.73-2.528 2.577-4.556 5.068-5.567a9.203 9.203 0 0 1 3.461-.679c.115 0 .23.013.345.016-2.837 2.048-4.822 5.766-5.038 10.113-.002.025.004.049.004.075-.003.028-.011.056-.012.084-.011.212-.021.425-.021.64 0 3.652 1.25 6.945 3.242 9.249-.101.002-.201.009-.301.015-.139-.01-.278-.021-.42-.021-2.542 0-4.706 1.624-5.526 3.886-1.378-2.319-2.037-5.315-2.037-8.302-.001-3.372.437-6.748 1.235-9.509zm15.024 17.286a8.391 8.391 0 0 1 7.971 5.746l.969 2.904c-.059.875-.491 3.115-3.353 3.115-.591 0-1.162.352-1.466.857a1.683 1.683 0 0 0-.043 1.656c.279.52.809.856 1.399.888a14.255 14.255 0 0 1 11.059 6.191 7.334 7.334 0 0 0-1.845.647l-.025-.014-17.482-7.673V39.08c0-.903-.211-1.756-.576-2.521H35.174zm-1.135-3.361a5.064 5.064 0 0 1-2.162-.5 6.183 6.183 0 0 1-1.514-1.016 8.072 8.072 0 0 1-1.389-1.668c-.876-1.382-1.462-3.118-1.616-5.036a42.915 42.915 0 0 0 4.337-.149c.58-.051 1.164-.118 1.751-.201a25.445 25.445 0 0 0 3.186-.653l.14-.039c.222-.063.441-.13.66-.2l.294-.098c.183-.063.365-.126.544-.194.138-.052.273-.109.409-.165.144-.059.29-.116.431-.179.222-.099.438-.205.652-.315.059-.03.121-.057.179-.088.215-.114.425-.235.63-.36l.08-.046c.074.547.112 1.101.112 1.664-.002 5.096-3.017 9.243-6.724 9.243zm5.601-14.303c-.025.021-.054.038-.08.059a6.557 6.557 0 0 1-.428.315c-.04.028-.079.056-.121.083a8.244 8.244 0 0 1-.573.341l-.064.034c-1.227.651-2.712 1.08-4.241 1.362a27.38 27.38 0 0 1-1.763.266c-.592.07-1.177.123-1.745.161a46.48 46.48 0 0 1-3.042.099h-.038c.572-2.998 2.212-5.391 4.304-6.393a5.085 5.085 0 0 1 1.808-.487c.126-.01.252-.023.381-.023.44 0 .875.064 1.3.184 1.738.488 3.303 1.932 4.3 3.997l.002.002z" fill="#0b15f5" class="svgShape color000000-0 selectable"></path></svg></g></svg>
