<svg width="288" height="288" xmlns="http://www.w3.org/2000/svg" version="1.1" xmlns:xlink="http://www.w3.org/1999/xlink" xmlns:svgjs="http://svgjs.com/svgjs"><defs ></defs><g id="SvgjsG1027"><svg xmlns="http://www.w3.org/2000/svg" viewBox="0 0 64 64" width="288" height="288"><path fill="#ffffff" fill-rule="evenodd" d="M51.034 1.99902C51.2927 1.99884 51.4804 2.11717 51.5652 2.17871C51.6632 2.24983 51.7422 2.33303 51.8006 2.40039C51.9189 2.53687 52.0338 2.70697 52.1375 2.875C52.3484 3.21688 52.5818 3.66237 52.8006 4.08984C53.0263 4.53082 53.2351 4.95019 53.4149 5.28809C53.5007 5.4495 53.5733 5.57664 53.6297 5.66797C53.7343 5.69305 53.8782 5.72165 54.0584 5.75293C54.4362 5.81851 54.9003 5.88581 55.3904 5.96289C55.8657 6.03764 56.3626 6.121 56.7537 6.21484C56.9459 6.26097 57.1438 6.317 57.3104 6.38672C57.3925 6.42111 57.4955 6.47031 57.5936 6.54102C57.6676 6.59443 57.8082 6.70993 57.8963 6.90332L57.9305 6.99121L57.9549 7.08203C57.9977 7.28972 57.9521 7.46551 57.9236 7.55273C57.886 7.6679 57.8311 7.7695 57.785 7.8457C57.6914 8.00001 57.5643 8.16141 57.4363 8.31152C57.1757 8.6172 56.824 8.97682 56.4842 9.31641C56.1336 9.66677 55.7976 9.99355 55.5311 10.2686C55.4044 10.3993 55.3048 10.5063 55.2352 10.5879C55.2435 10.6947 55.2611 10.8399 55.2869 11.0205C55.3411 11.3991 55.4199 11.8607 55.4979 12.3496C55.5735 12.8236 55.6481 13.3214 55.6795 13.7217C55.6949 13.9183 55.7023 14.1238 55.6873 14.3037C55.6799 14.3924 55.6649 14.506 55.6277 14.6211C55.5955 14.7209 55.5134 14.9277 55.3035 15.0801C55.0938 15.2322 54.8717 15.2462 54.7674 15.2461C54.6467 15.246 54.5347 15.2253 54.4481 15.2051C54.2722 15.1641 54.0791 15.0937 53.8963 15.0186C53.6679 14.9247 53.41 14.803 53.1453 14.6738C53.1907 15.2291 53.2776 15.9216 53.4451 16.6055C53.6311 17.3647 53.9019 18.0544 54.2733 18.5391C54.6264 18.9998 55.0451 19.25 55.6004 19.25C56.0145 19.2501 56.3503 19.5859 56.3504 20V22.9629H57.2498C57.664 22.9629 57.9998 23.2988 57.9998 23.7129V61.25C57.9998 61.6641 57.664 62 57.2498 62H6.74982C6.49548 62 6.25816 61.8707 6.11993 61.6572C5.98203 61.4439 5.96144 61.1752 6.06525 60.9434L8.06525 56.4844L8.11798 56.3877C8.25432 56.174 8.49137 56.041 8.74982 56.041H18.6883L20.4754 52.7568L20.5301 52.6709C20.6702 52.4803 20.894 52.3652 21.1346 52.3652H31.032L32.8338 48.3193C32.9544 48.049 33.2233 47.875 33.5193 47.875H41.6209L43.5652 23.6523C43.5968 23.2629 43.9225 22.9629 44.3133 22.9629H45.4754V20C45.4755 19.5858 45.8112 19.25 46.2254 19.25C46.7806 19.2499 47.1994 18.9998 47.5526 18.5391C47.9239 18.0544 48.1946 17.3647 48.3807 16.6055C48.5348 15.9764 48.6186 15.3397 48.6668 14.8096C48.5002 14.8881 48.3401 14.9614 48.1922 15.0225C48.0096 15.0978 47.8171 15.1687 47.6414 15.21C47.5547 15.2303 47.442 15.2517 47.3211 15.252C47.2168 15.2522 46.9949 15.2387 46.785 15.0869C46.5749 14.9348 46.4932 14.7277 46.4608 14.6279C46.4233 14.5127 46.4078 14.3993 46.4002 14.3105C46.3849 14.1306 46.3919 13.9253 46.407 13.7285C46.4378 13.3282 46.5109 12.8306 46.5858 12.3564C46.663 11.8674 46.7421 11.4061 46.7957 11.0273C46.8213 10.8468 46.8373 10.7016 46.8455 10.5947C46.7758 10.5133 46.6764 10.4058 46.5496 10.2754C46.2827 10.0008 45.9466 9.67395 45.5955 9.32422C45.2552 8.98514 44.9025 8.62654 44.6414 8.32129C44.5131 8.17122 44.3856 8.00978 44.2918 7.85547C44.2456 7.77937 44.1919 7.67846 44.1541 7.56348C44.1215 7.46395 44.065 7.24813 44.1453 7.00098L44.1795 6.91406C44.2673 6.72043 44.4082 6.60531 44.4822 6.55176C44.5803 6.48083 44.6833 6.43101 44.7654 6.39648C44.9318 6.32657 45.1291 6.27002 45.3211 6.22363C45.7121 6.12919 46.2093 6.04521 46.6844 5.96973C47.1743 5.8919 47.6388 5.82397 48.0164 5.75781C48.1962 5.7263 48.3397 5.69709 48.4442 5.67188C48.5004 5.58041 48.5733 5.45268 48.659 5.29102C48.8382 4.95291 49.0454 4.53295 49.2703 4.0918C49.4884 3.6641 49.7221 3.21908 49.9324 2.87695C50.0358 2.70876 50.1503 2.53802 50.2684 2.40137C50.3266 2.33394 50.4059 2.25092 50.5037 2.17969C50.5885 2.11799 50.7756 1.99928 51.034 1.99902ZM43.0604 48.6846C43.0291 49.0742 42.7041 49.3749 42.3133 49.375H34.0067L32.2039 53.4199C32.0834 53.6904 31.8155 53.8652 31.5193 53.8652H21.5809L19.7938 57.1494C19.6625 57.3907 19.4093 57.541 19.1346 57.541H9.23517L7.90802 60.5H56.4998V24.4629H45.0047L43.0604 48.6846ZM46.9754 22.9629H54.8504V20.75H46.9754V22.9629ZM51.0359 3.96191C50.9029 4.20009 50.7573 4.47902 50.6072 4.77344C50.3952 5.18934 50.1704 5.64277 49.9842 5.99414C49.8905 6.17094 49.7973 6.3384 49.7127 6.47461C49.6706 6.54235 49.624 6.6126 49.575 6.67676C49.5351 6.72899 49.4568 6.82859 49.3445 6.91016C49.2323 6.99166 49.1136 7.03585 49.0516 7.05762C48.9753 7.08438 48.8938 7.10685 48.8162 7.12598C48.6605 7.16437 48.4725 7.20078 48.2752 7.23535C47.883 7.30407 47.3816 7.3778 46.9197 7.45117C46.5945 7.50285 46.2847 7.55459 46.0174 7.60742C46.2026 7.80633 46.4214 8.02984 46.6541 8.26172C46.9851 8.59147 47.3484 8.94517 47.6258 9.23047C47.7653 9.37393 47.8962 9.51346 47.9998 9.63574C48.0514 9.69667 48.1041 9.76271 48.1502 9.8291C48.1783 9.86962 48.2248 9.93923 48.2645 10.0273L48.3006 10.1211L48.327 10.2178C48.3469 10.3121 48.3502 10.396 48.3514 10.4453C48.3533 10.5259 48.3493 10.61 48.3436 10.6895C48.332 10.8492 48.3091 11.0394 48.2811 11.2373C48.2253 11.6309 48.141 12.1299 48.0682 12.5908C48.0169 12.9156 47.9705 13.2252 47.9383 13.4951C48.1862 13.3805 48.4689 13.2408 48.7635 13.0908C48.8937 13.0245 49.0272 12.9559 49.16 12.8877C49.1661 12.8848 49.1723 12.8816 49.1785 12.8789C49.464 12.7321 49.7456 12.5865 49.9861 12.4688C50.166 12.3807 50.3396 12.2998 50.4881 12.2393C50.5621 12.2091 50.6412 12.1794 50.7186 12.1562C50.7815 12.1374 50.9033 12.1037 51.0418 12.1035C51.1801 12.1034 51.3019 12.1365 51.3651 12.1553C51.4425 12.1783 51.5224 12.2082 51.5965 12.2383C51.7451 12.2985 51.9185 12.3791 52.0984 12.4668C52.4563 12.6413 52.9051 12.8764 53.3221 13.0879C53.6164 13.2372 53.8985 13.3761 54.1463 13.4902C54.1137 13.2205 54.0692 12.9105 54.0174 12.5859C53.9439 12.1252 53.8579 11.6268 53.8016 11.2334C53.7732 11.0354 53.7499 10.8454 53.7381 10.6855C53.7322 10.606 53.7284 10.5212 53.7303 10.4404C53.7318 10.3746 53.7372 10.2481 53.7801 10.1162C53.8231 9.98409 53.8932 9.87818 53.9305 9.82422C53.9764 9.75787 54.0294 9.69176 54.0809 9.63086C54.1843 9.5084 54.3147 9.36827 54.4539 9.22461C54.7309 8.9389 55.0932 8.58511 55.4236 8.25488C55.656 8.02266 55.8745 7.79879 56.0594 7.59961C55.7921 7.54721 55.4823 7.49647 55.157 7.44531C54.6951 7.37265 54.1939 7.29957 53.8016 7.23145C53.604 7.19715 53.4155 7.16026 53.2596 7.12207C53.1821 7.10307 53.1004 7.0813 53.0242 7.05469C52.9622 7.03302 52.8444 6.98834 52.7322 6.90723C52.6197 6.82581 52.5398 6.72699 52.4998 6.6748C52.4507 6.61071 52.4043 6.54033 52.3621 6.47266C52.2773 6.33656 52.1847 6.16889 52.0906 5.99219C51.9038 5.64111 51.6783 5.18802 51.4656 4.77246C51.3151 4.47841 51.1694 4.19981 51.0359 3.96191Z" clip-rule="evenodd" class="svgShape color000000-0 selectable"></path><path fill="#ffffff" fill-rule="evenodd" d="M43.0213 12.7412C43.2861 12.5735 43.6273 12.5885 43.8768 12.7783 44.1263 12.9683 44.2319 13.2937 44.1404 13.5938 40.8811 24.2838 37.341 33.3666 31.7039 39.7695 26.0228 46.2223 18.2678 49.8945 6.74982 49.8945 6.33568 49.8945 5.99995 49.5586 5.99982 49.1445V41.3662C5.99988 40.9521 6.33564 40.6162 6.74982 40.6162 17.4149 40.6162 24.4067 36.0105 28.7459 31.4082 30.9203 29.1019 32.4299 26.7939 33.3943 25.0645 33.876 24.2007 34.221 23.483 34.4442 22.9844 34.459 22.9513 34.4714 22.9179 34.4852 22.8867L31.2947 21.582C31.0351 21.4758 30.8566 21.2335 30.8318 20.9541 30.8071 20.6749 30.9399 20.4052 31.1766 20.2549L43.0213 12.7412ZM18.9998 2.7002C19.414 2.70022 19.7498 3.03605 19.7498 3.4502V5.6582C24.6279 6.03961 28.4965 10.0159 28.7537 14.9502H31.2498C31.664 14.9502 31.9998 15.2861 31.9998 15.7002 31.9996 16.1142 31.6639 16.4502 31.2498 16.4502H28.7195C28.2574 21.1734 24.4778 24.9183 19.7498 25.2881V27.9502C19.7496 28.3642 19.4139 28.7002 18.9998 28.7002 18.5858 28.7001 18.25 28.3642 18.2498 27.9502V25.291C13.5041 24.9384 9.7064 21.186 9.24298 16.4502H6.74982C6.33572 16.4502 6.00001 16.1142 5.99982 15.7002 5.99988 15.286 6.33564 14.9502 6.74982 14.9502H9.20783C9.46569 10.0031 13.3539 6.01894 18.2498 5.65527V3.4502C18.2499 3.03608 18.5857 2.70026 18.9998 2.7002ZM18.2498 7.15918C14.19 7.5169 10.9652 10.8246 10.7117 14.9502H13.1375C13.5517 14.9502 13.8874 15.2861 13.8875 15.7002 13.8873 16.1142 13.5516 16.4502 13.1375 16.4502H10.7527C11.2051 20.3631 14.3396 23.4435 18.2498 23.7881V21.5615C18.25 21.1475 18.5858 20.8116 18.9998 20.8115 19.4139 20.8116 19.7496 21.1475 19.7498 21.5615V23.7852C23.6424 23.424 26.7579 20.3504 27.2088 16.4502H24.8621C24.448 16.4502 24.1123 16.1142 24.1121 15.7002 24.1122 15.286 24.4479 14.9502 24.8621 14.9502H27.2498C26.9971 10.8374 23.7918 7.53703 19.7498 7.16211V9.83789C19.7498 10.2521 19.414 10.5879 18.9998 10.5879 18.5857 10.5878 18.2498 10.252 18.2498 9.83789V7.15918Z" clip-rule="evenodd" class="svgShape color000000-1 selectable"></path></svg></g></svg>
