<svg width="288" height="288" xmlns="http://www.w3.org/2000/svg" version="1.1" xmlns:xlink="http://www.w3.org/1999/xlink" xmlns:svgjs="http://svgjs.com/svgjs"><defs ></defs><g id="SvgjsG1008"><svg xmlns="http://www.w3.org/2000/svg" enable-background="new 0 0 70 70" viewBox="0 0 70 70" width="288" height="288"><path d="M52.5001221,41.5450134l-1.1800537-0.2999878v6.2299805c1.4899902,0.4299927,2.5899658,1.7999878,2.5899658,3.4299927
		c0,1.9800415-1.6099854,3.6000366-3.5899658,3.6000366c-1.9801025,0-3.5999756-1.6199951-3.5999756-3.6000366
		c0-1.6300049,1.0999756-3,2.5999756-3.4299927v-6.7399902l-6.6600342-1.6900024
		c-0.3499756-1.7299805-0.4499512-4.289978-0.0500488-6.210022c1.380127-1.3899536,2.5-3,3.3100586-4.7999878
		c0.6400146-0.25,1.1300049-0.8399658,1.2399902-1.5800171l0.5800781-3.9099731
		c0.0799561-0.5599976-0.0900879-1.1300049-0.460083-1.5700073c-0.2799072-0.3200073-0.6500244-0.539978-1.0599365-0.6400146
		l0.1098633-3.4499512h0.0300293c0.5500488,0,1-0.4500122,1-0.999999V6.1950388
		c0-1.7400513-1.4199219-3.1600342-3.1599121-3.1600342H25.8000488c-1.7399902,0-3.1600342,1.4199829-3.1600342,3.1600342v9.6900024
		c0,0.5499868,0.4499512,0.999999,1,0.999999h0.0400391l0.0999756,3.4499512
		c-0.4100342,0.1000366-0.7799072,0.3200073-1.0599365,0.6400146c-0.3701172,0.4299927-0.5400391,1.0100098-0.4599609,1.5700073
		l0.579834,3.9199829c0.1101074,0.7300415,0.5900879,1.3200073,1.2399902,1.5700073
		c0.8400879,1.8800049,2,3.5200195,3.420166,4.9299927c0,1.0800171-0.0200195,4.1500244-0.2600098,6.1000366l-6.5800781,1.6799927
		v6.9500122h3.9000244c0.5499268,0,1,0.4499512,1,1v6.4799805c0,0.5499878-0.4500732,1-1,1h-1.6600342c-0.5500488,0-1-0.4500122-1-1
		s0.4499512-1,1-1h0.6600342v-4.4799805h-7.7900391v4.4799805h0.6500244c0.5600586,0,1,0.4500122,1,1s-0.4399414,1-1,1h-1.6500244
		c-0.5499268,0-1-0.4500122-1-1v-6.4799805c0-0.5500488,0.4500732-1,1-1h3.8900146v-6.4400024l-1.1499023,0.289978
		c-5.2301025,1.3400269-8.880127,6.039978-8.880127,11.4299927v9.75c0,2.3400269,1.9000244,4.2399902,4.2399902,4.2399902h5.8100586
		v-7.539978c0-0.5499878,0.4499512-1,1-1c0.5600586,0,1,0.4500122,1,1v7.539978h28.6400146v-7.539978c0-0.5499878,0.4400635-1,1-1
		c0.5499268,0,1,0.4500122,1,1v7.539978h5.8099365c2.3400879,0,4.2399902-1.8999634,4.2399902-4.2399902v-9.75
		C61.3699951,47.5849915,57.7200928,42.8850403,52.5001221,41.5450134z M31.8499756,8.9549875h2.1501465V6.8050241h2v2.1499634
		h2.1499023v2h-2.1499023v2.1600342h-2v-2.1600342h-2.1501465V8.9549875z M35.4300537,47.8850403l-0.4299316,0.7699585
		l-1.460083-2.6199951c-3.8584728-6.643528-3.6762886-6.9331131-4.2299805-7.2099609
		c-0.0100098-0.0100098-0.0200195-0.0100098-0.0300293-0.0200195c0.1300049-1.3099976,0.1900635-2.8800049,0.210083-4.1199951
		c0.75,0.5299683,1.4499512,0.9599609,2.1398926,1.3099976c0.0200195,0,0.0300293,0,0.0400391,0.0100098
		c0.0100098,0,0.0200195,0.0100098,0.0300293,0.0199585c1.1298828,0.460022,2.25,0.6900024,3.3499756,0.6900024
		c1.1099854,0,2.2000732-0.2299805,3.2700195-0.6999512l0.0098877-0.0100098c0.0100098,0,0.0200195-0.0100098,0.0400391-0.0100098
		c0.7099609-0.3599854,1.3701172-0.7900391,2.0100098-1.2399902c-0.0699463,1.4400024,0.0300293,2.8999634,0.2199707,4.1099854
		C40.1577873,39.1610146,40.0042381,39.8757935,35.4300537,47.8850403z M37.4901123,34.1950378
		c-3.0495987,1.317543-5.9411945-0.0007706-8.2900391-2.3500366c-0.0100098,0-0.0100098,0-0.0100098-0.0100098
		c-0.0100098,0-0.0100098,0-0.0100098,0c-1.4599609-1.3699951-2.6099854-3.0199585-3.4100342-4.9199829
		c-0.1099854-0.4299927-0.4899902-0.75-0.9599609-0.75l-0.5599365-3.8800049h0.5599365
		c0.2698975,0,0.5299072-0.1099854,0.7199707-0.3099976c0.1800537-0.1900024,0.2900391-0.4599609,0.2800293-0.7299805
		l-0.1400146-4.3599854h18.6599121l-0.1398926,4.3599854c-0.0100098,0.2700195,0.0999756,0.539978,0.2800293,0.7299805
		c0.1899414,0.2000122,0.4499512,0.3099976,0.7199707,0.3099976l0.5700684-0.0299683l-0.5700684,3.9199829
		c-0.4299316,0-0.8000488,0.289978-0.9399414,0.6799927C42.8983231,30.0921879,40.4459457,32.6594849,37.4901123,34.1950378z" fill="#ffffff" class="svgShape color000000-0 selectable"></path><path d="M48.7218018,50.9033508c0,0.8808594,0.7167969,1.5976563,1.5976563,1.5976563
		c0.8759766,0,1.5888672-0.7167969,1.5888672-1.5976563c0-0.8759766-0.7128906-1.5888672-1.5888672-1.5888672
		C49.4385986,49.3144836,48.7218018,50.0273743,48.7218018,50.9033508z" fill="#ffffff" class="svgShape color000000-1 selectable"></path></svg></g></svg>
